PathFileType	4	(X/Y/Z)	OpenSim_Sub05_EMGBaseline_Accel.trc
DataRate	CameraRate	NumFrames	NumMarkers	Units	OrigDataRate	OrigDataStartFrame	OrigNumFrames
100	100	13	8	m	100	7444	11909
Frame#	Time	torso_imu_offset_imu	pelvis_imu_offset_imu	tibia_r_imu_offset_imu	femur_r_imu_offset_imu	tibia_l_imu_offset_imu	femur_l_imu_offset_imu	toes_r_imu_offset_imu	toes_l_imu_offset_imu
				X1	Y1	Z1	X2	Y2	Z2	X3	Y3	Z3	X4	Y4	Z4	X5	Y5	Z5	X6	Y6	Z6	X7	Y7	Z7	X8		Y8	Z8	

7444	74.43000000	9.53308800	-0.32924800	6.15545600	9.54275900	-1.67687600	3.95386900	8.91373800	6.01032600	-0.46927100	4.87804900	9.03068400	3.46629100	14.09572500	3.82826900	1.76830800	10.09637600	0.48670500	3.05275600	5.86223900	-1.98949500	8.35434500	8.51085200	4.31915600	15.75621700
7445	74.44000000	9.04623800	-0.62108400	6.02886900	8.78586600	-1.02507300	3.82221500	8.27241900	6.49685500	0.68833200	7.59191900	6.06543001	3.37176100	13.05358700	2.08814300	0.61748900	10.28623100	-0.45844200	3.38051500	5.50142000	-1.52669800	8.60960600	11.93228199	3.01178300	15.63008500
7446	74.45000000	8.71856300	-0.85298500	5.86096600	8.24905900	-0.16107400	3.71010400	8.84486100	5.63799900	0.87568800	9.75542700	2.63501400	2.21569000	11.80064200	-1.60144899	0.06311400	10.79250500	-1.17512500	3.04809700	5.36782300	-1.58415600	8.79848100	16.85769100	5.09656200	15.89537200
7447	74.46000000	8.49424200	-0.99458900	5.77408700	8.05743100	0.68218400	3.69563700	9.76060600	4.28208300	1.00483400	11.00627500	0.23197400	1.77431000	10.45934900	-5.50587599	-0.50839000	11.31199500	-1.60024600	1.89266600	5.47707100	-1.28565900	8.84123900	17.18411800	8.01937500	15.80084500
7448	74.47000000	8.40454300	-1.05468600	5.81007700	8.16441300	1.40434700	3.66408400	10.21655100	3.20691700	0.99801000	11.76796900	-2.03221200	1.34669600	9.12298500	-8.75509600	-1.38582200	11.78514300	-1.28601500	0.13832500	5.79947200	-0.44954400	8.65439100	13.10030901	8.33250901	15.13466400
7449	74.48000000	8.40653400	-1.10284600	5.83947200	8.57172400	1.79460700	3.66251900	10.89050000	2.00481200	1.08179700	11.88870300	-3.91367400	0.07944600	8.05087400	-11.49829100	-2.35650600	11.90436800	-0.07821100	-0.48335700	6.09763600	-0.03219600	8.67254900	7.96796200	2.47722301	20.13783699
7450	74.49000000	8.47746400	-1.04095700	6.00892000	9.00631400	1.92521800	3.72067500	11.55060500	0.69048800	1.21807800	11.07378900	-4.47983600	-0.98533000	6.93929100	-13.86075600	-3.42578800	11.62083800	0.96726100	0.12973300	5.84002100	-0.47536600	8.53744700	7.21248901	2.50277400	24.28310000
7451	74.50000000	8.65265300	-0.95613800	6.13663100	9.49565100	1.72611200	3.59737400	11.00094400	-0.57912200	1.57978900	10.06130500	-3.62251400	-1.13104600	5.60077600	-13.50517500	-4.28221700	12.13986600	2.07338700	1.97379400	5.58110100	-1.44101600	8.32853600	-3.75418599	5.11683700	18.87282201
7452	74.51000000	9.08920500	-0.89057400	6.24660400	9.81550400	1.23829900	3.36443400	9.34073300	-1.12507500	0.84784500	9.59478600	-2.53477100	-0.51453600	4.53592600	-8.74687001	-3.26896800	12.74041400	2.65936500	2.60765600	5.56031100	-2.17005000	8.20320500	-1.16417101	7.01162100	15.38308400
7453	74.52000000	9.29124600	-0.65672600	6.32994900	10.01254300	0.65717400	3.33456800	8.47527100	-0.50733500	-0.61199400	9.26535500	-1.61696600	0.60401600	2.90811100	-3.99518501	0.39025000	11.97138000	2.62405400	2.61801600	5.50176100	-2.51280100	8.17896600	-0.84607800	7.83542500	17.48582600
7454	74.53000000	9.07377400	-0.48396500	6.25460400	10.27479600	-0.04884200	3.10908700	9.16093700	0.83239800	-1.42121500	8.70406200	-1.15242200	1.69943200	0.69661400	-1.99213300	1.25968500	11.18439600	1.94285900	2.44158700	5.56113200	-2.46172100	8.03980600	-3.78185200	4.25087700	13.25562700
7455	74.54000000	8.93697200	-0.33389000	6.34358400	10.25646900	-0.66216800	2.87187000	10.20459500	1.87832200	-1.46988200	8.41555400	-1.08673000	2.20414000	0.11063400	-2.25182500	0.53791200	10.92836500	1.05376400	1.98776500	5.45764300	-2.49144700	7.90527600	-2.52353300	3.40609900	13.19073300
7456	74.55000000	8.94010600	-0.20858300	6.28558100	9.91604800	-0.91525900	2.75669400	10.48938600	2.76331900	-1.77209200	8.62263300	-1.26071700	2.24904000	1.93900900	-2.23520100	1.13685600	10.72936900	0.09813000	1.36500800	5.60266700	-1.95584600	8.16980500	-3.07013800	3.72784400	12.01147200
